<svg xmlns="http://www.w3.org/2000/svg" viewBox="0 0 857.57 720.75"><defs><style>.cls-1{fill:none;stroke:#000;stroke-miterlimit:10;stroke-width:2px;}</style></defs><title>Asset 5</title><g id="Layer_2" data-name="Layer 2"><g id="Layer_1-2" data-name="Layer 1"><text></text><path class="cls-1" d="M171.18,709.49l68.29-112.31s8.35-17.45-6.83-46.29l94.09-115.34h36.42l30.35-28.84v-25.8l41-30.35V339.94l173-33.39s31.87-6.07,33.39-21.25L804.8,227.63s36.42-7.59,34.91-77.4h12.14s10.62,3,0-54.64c0,0,1.52-3-19.73-4.55,0,0-9.11-74.36-89.54-78.92,0,0-53.12-4.55-97.13,7.59L540.73,51.59s-53.12,3-69.81,16.69c0,0-211,77.4-367.27,165.42l-6.07,7.59L71.78,255S-8.66,277.72,2,339.94c0,0,10.62,62.22,72.85,50.08l39.46-4.55L138.55,384h28.84L175,379.4l74.36-6.07L150.7,520.54l-1.52,12.14s-18.21,0-27.32,15.18l-60.71,85S49,651.06,71.78,682.93L90,707.21s13.66,15.18,30.35,12.14l42.49-3S170.43,714.8,171.18,709.49Z"/><path class="cls-1" d="M156.77,305,477,204.87s4.55,85,62.22,94.09c0,0,44.92,12.93,89.23.39"/><path class="cls-1" d="M156.77,255,467.88,147.2s-5.42-85.5,19.3-86.76"/><path class="cls-1" d="M487.61,198.8s47-24.28,191.22-63.74c0,0,112.31-1.52,154.8,12.14"/><path class="cls-1" d="M478.51,138.09,660.62,88s10.62-15.18,163.91,3"/><path class="cls-1" d="M225.06,561.52s22.76,34.91-34.91,101.68H161.32L178,635.88s-1.52-9.11,27.32-9.11C205.33,626.77,229.61,617.67,225.06,561.52Z"/><path class="cls-1" d="M134,594.9"/><circle class="cls-1" cx="145.38" cy="582" r="15.94"/><path class="cls-1" d="M194.71,611.6s15.18-83.47-30.35-85"/><path class="cls-1" d="M111.24,696.59l59.19-85s21.25-39.46-13.66-77.4"/><path class="cls-1" d="M71.78,255s-34.91,83.47,39.46,130.52"/><path class="cls-1" d="M97.58,241.29S62.67,355.12,156.77,377.88"/><path class="cls-1" d="M472.14,216.44s1.12,100,100,92.17"/><path class="cls-1" d="M460.9,140s0-51.71,9-67.44"/><path class="cls-1" d="M63.59,262.74S37.12,335.59,94.45,381.67"/><line class="cls-1" x1="158.52" y1="518.81" x2="251.82" y2="381.67"/></g></g></svg>