<svg xmlns="http://www.w3.org/2000/svg" viewBox="0 0 226.6 40.93"><defs><style>.cls-1{fill:#f7061d;}</style></defs><title>Asset 9</title><g id="Layer_2" data-name="Layer 2"><g id="Layer_1-2" data-name="Layer 1"><path class="cls-1" d="M29.21,39.63a85.64,85.64,0,0,1-13.73.73C7.59,40.24,2.79,39.81,1,39.2A100.68,100.68,0,0,1,0,25.11C0,18,.12,12.36.49,8.17A5.79,5.79,0,0,1,2.37,8a4.2,4.2,0,0,1,2.25.36l-.12,9.53c12.21.24,18.95.49,20.16.79a4.65,4.65,0,0,1,.24,1.76,6,6,0,0,1-.36,1.94c-1.46.12-2.55.18-3.22.18-5.65,0-11.3-.06-16.94-.24,0,3.4.18,7.71.55,13.06a87.07,87.07,0,0,0,10.2.49l14,.18a4.81,4.81,0,0,1,.24,1.82A6.8,6.8,0,0,1,29.21,39.63Zm3.7-35C29,4.89,21.13,5,9.47,5,5.1,5,2.13,4.89.55,4.71A18.18,18.18,0,0,1,.3,2.89a7,7,0,0,1,.24-2C6.56.58,12.15.4,17.37.4,23,.4,28.12.64,32.92,1c.06.61.12,1.21.12,1.82A11.56,11.56,0,0,1,32.92,4.65Z"/><path class="cls-1" d="M159.47,27.33c-2.79,9.11-5.22,13.6-7.29,13.6-1.46,0-4.68-4.92-9.53-14.76-7.17,9.84-11.3,14.7-12.27,14.7-.73,0-1.88-1.7-3.58-5.1a115.56,115.56,0,0,1-6.19-17.92A112.43,112.43,0,0,1,117.2.55a5,5,0,0,1,2-.55c.36,0,1,.06,1.76.06C122.79,8.44,124.19,14,125,16.64a110.52,110.52,0,0,0,6.19,17.43c.55-.61,3-3.95,7.53-10,1.94-2.61,3.4-3.95,4.49-3.95.61,0,1.46,1,2.61,3.1,2.73,5.34,4.74,9,6,11,.43-.24,1.76-4,4-11.42,1.88-7.35,3.34-14.15,4.31-20.34.3,0,1-.06,2.06-.06a3,3,0,0,1,1.88.67A130.86,130.86,0,0,1,159.47,27.33Z"/><path class="cls-1" d="M35.3,31.64a2.11,2.11,0,0,1-1,.24,3.22,3.22,0,0,1-1-.17c-.31-.68-.44-4.3-.44-10.79,0-2.87,0-6.8.17-11.82a2.75,2.75,0,0,1,1.13-.17,2.78,2.78,0,0,1,1.06.2c.17,1.23.27,5.81.27,13.76C35.47,28.36,35.4,31.3,35.3,31.64Z"/><path class="cls-1" d="M50.94,25.32c-1.43.51-5.36.89-11.72,1.16.75,2.12,2.49,3.14,5.23,3.14a9,9,0,0,0,3.76-.85,4.17,4.17,0,0,1,.68,1.84,9.46,9.46,0,0,1-10.52-.72,6.36,6.36,0,0,1-1.88-4.75A7.83,7.83,0,0,1,38.1,20a7.24,7.24,0,0,1,5.7-2.63A7.33,7.33,0,0,1,49,19.17a7,7,0,0,1,2.12,5.06C51.11,24.91,51,25.29,50.94,25.32Zm-3.14-4a5,5,0,0,0-7.41-.24A5.27,5.27,0,0,0,39,24.5c1.13-.07,4.3-.34,9.56-.79A4.84,4.84,0,0,0,47.8,21.32Z"/><path class="cls-1" d="M59.79,31.88a7.74,7.74,0,0,1-4.92-1.74,6.69,6.69,0,0,1-2.39-5.46c.14-4.51,2.53-6.93,7.21-7.28a8.16,8.16,0,0,1,3.42.72,5.56,5.56,0,0,1,2.56,2.25,4.55,4.55,0,0,1-.58.65,1.85,1.85,0,0,1-.72.48,6.19,6.19,0,0,0-4.68-1.88c-3.07.31-4.68,2-4.78,5.09a4.71,4.71,0,0,0,1.67,3.79,5.35,5.35,0,0,0,3.11,1.13,8.65,8.65,0,0,0,5-2c.31.07.72.58,1.23,1.5A8.4,8.4,0,0,1,59.79,31.88Z"/><path class="cls-1" d="M72.69,17.63a31.05,31.05,0,0,1,4.85.27,8.31,8.31,0,0,0,.07.92,5.66,5.66,0,0,1-.07.92,11.29,11.29,0,0,1-1.81.2c-1,.07-2.08.07-3.24.07-.2,4.75-.34,7.75-.34,9.05,0,.34.17.51.58.51.1,0,.48,0,1.09-.1.82-.17,1.54-.31,2.12-.38a2.51,2.51,0,0,1,.24,1c0,.14,0,.38,0,.72a8.85,8.85,0,0,1-4.27,1A2.11,2.11,0,0,1,70,31.09a3,3,0,0,1-.41-1.74c0-2,.1-5.12.38-9.39a20,20,0,0,1-3.31-.27,2.92,2.92,0,0,1-.1-1,3.91,3.91,0,0,1,.1-1c1.23-.1,2.39-.17,3.48-.17.2-2.77.41-5.36.65-7.82.48,0,1.23.07,2.22.14C72.9,12.55,72.8,15.11,72.69,17.63Z"/><path class="cls-1" d="M90.52,19.85c-1-.1-1.67-.17-2.15-.17A11.52,11.52,0,0,0,81.61,22c.41,5.05.61,8,.61,8.78,0,.48,0,.79,0,.92a5.72,5.72,0,0,1-2,.2,55.16,55.16,0,0,1-.85-7c-.2-2.9-.31-5.33-.31-7.24.55-.07,1-.14,1.23-.14s.51,0,1,.07l.27,2.19a10.07,10.07,0,0,1,6.28-2.25,11.63,11.63,0,0,1,3,.44A6.39,6.39,0,0,1,90.52,19.85Z"/><path class="cls-1" d="M94.62,12.41a5.13,5.13,0,0,1-1.74-.48,3.7,3.7,0,0,1-1.47-.79A4.9,4.9,0,0,1,92.3,9a6.09,6.09,0,0,1,1.61.44,7.83,7.83,0,0,1,1.5.79A7.78,7.78,0,0,1,94.62,12.41Zm-.1,19.23a2.55,2.55,0,0,1-1.13.2,3.79,3.79,0,0,1-1.13-.1c-.27-.48-.38-3.11-.38-7.86a44.83,44.83,0,0,1,.2-6.28,4.25,4.25,0,0,1,1.16-.14,2.8,2.8,0,0,1,1.16.24,56.42,56.42,0,0,1,.2,7C94.62,28.91,94.59,31.23,94.52,31.64Z"/><path class="cls-1" d="M103.06,31.88a7.74,7.74,0,0,1-4.92-1.74,6.69,6.69,0,0,1-2.39-5.46c.14-4.51,2.53-6.93,7.21-7.28a8.16,8.16,0,0,1,3.42.72,5.56,5.56,0,0,1,2.56,2.25,4.55,4.55,0,0,1-.58.65,1.85,1.85,0,0,1-.72.48A6.19,6.19,0,0,0,103,19.62c-3.07.31-4.68,2-4.78,5.09a4.71,4.71,0,0,0,1.67,3.79A5.35,5.35,0,0,0,103,29.62a8.65,8.65,0,0,0,5-2c.31.07.72.58,1.23,1.5A8.4,8.4,0,0,1,103.06,31.88Z"/><path class="cls-1" d="M178.76,32c-.85,0-1.54,0-2,0a18.63,18.63,0,0,1-.27-2.6,7.68,7.68,0,0,1-5.53,2.73,7,7,0,0,1-4.71-1.61,7,7,0,0,1-2.22-5.4,7.39,7.39,0,0,1,2.25-5.57,7,7,0,0,1,4.68-1.78,5.24,5.24,0,0,1,4.37,2.15,2.71,2.71,0,0,1-1,1.5,5.08,5.08,0,0,0-3.35-1.4,4.69,4.69,0,0,0-3,1.33,5,5,0,0,0-1.47,3.76,4.91,4.91,0,0,0,1.3,3.48,4.22,4.22,0,0,0,3.21,1.3c1.74,0,3.52-1,5.29-3-.27-3.93-.38-6.8-.38-8.61a4.83,4.83,0,0,1,1.09-.24c.65,0,1,.07,1,.14a27.19,27.19,0,0,1,.58,5.74q.2,4.71.2,7C178.79,31.24,178.76,31.58,178.76,32Z"/><path class="cls-1" d="M189.72,31.07c-.92.75-1.5,1.13-1.78,1.13s-1.06-.65-2.12-2a30.61,30.61,0,0,1-3.11-5.67,24.18,24.18,0,0,1-1.88-6.32,6.29,6.29,0,0,1,2-.44,57.9,57.9,0,0,0,3.28,8.09c1.2,2.25,1.91,3.42,2.12,3.42s.51-.34,1.13-1.09a23.39,23.39,0,0,0,4.47-9.77c.14,0,.41,0,.82,0a7.3,7.3,0,0,1,1.33.34A20.15,20.15,0,0,1,189.72,31.07Z"/><path class="cls-1" d="M212.12,25.64c-1.43.51-5.36.89-11.72,1.16.75,2.12,2.49,3.14,5.23,3.14a9,9,0,0,0,3.76-.85,4.17,4.17,0,0,1,.68,1.84,9.46,9.46,0,0,1-10.52-.72,6.35,6.35,0,0,1-1.88-4.75,7.83,7.83,0,0,1,1.61-5.16,7.24,7.24,0,0,1,5.7-2.63,7.33,7.33,0,0,1,5.19,1.81,7,7,0,0,1,2.12,5.06C212.29,25.23,212.22,25.6,212.12,25.64Zm-3.14-4a5,5,0,0,0-7.41-.24,5.27,5.27,0,0,0-1.37,3.42c1.13-.07,4.3-.34,9.56-.79A4.84,4.84,0,0,0,209,21.64Z"/><path class="cls-1" d="M226.26,20.82a1.77,1.77,0,0,1-.65.75,10,10,0,0,0-5.6-1.88c-2.08,0-3.11.55-3.11,1.61,0,.75.58,1.37,1.78,1.84,2,.89,3.28,1.47,3.83,1.74a4,4,0,0,1,2.42,3.55c-.2,2.53-1.84,3.76-5,3.83a6.91,6.91,0,0,1-5.26-2.56,3.68,3.68,0,0,1,.51-.89l.61-.61A6.56,6.56,0,0,0,220,30.08c1.5,0,2.32-.58,2.42-1.67,0-.79-.58-1.5-1.74-2.12-.34-.14-1.5-.65-3.52-1.47s-2.83-2-2.83-3.55a3.28,3.28,0,0,1,1.95-2.9,7.9,7.9,0,0,1,3.79-.75,10.81,10.81,0,0,1,6.52,2.29A2.21,2.21,0,0,1,226.26,20.82Z"/></g></g></svg>