<svg xmlns="http://www.w3.org/2000/svg" xmlns:xlink="http://www.w3.org/1999/xlink" viewBox="0 0 365 365"><defs><style>.cls-1{fill:#020000;}.cls-2{fill:#777070;}.cls-3{fill:#777;}.cls-4{opacity:0.87;}.cls-5{fill:url(#linear-gradient);}</style><linearGradient id="linear-gradient" x1="164.02" y1="170.41" x2="180.83" y2="170.41" gradientUnits="userSpaceOnUse"><stop offset="0.04" stop-color="#fff"/><stop offset="0.72"/></linearGradient></defs><title>Asset 1</title><g id="Layer_2" data-name="Layer 2"><g id="Layer_1-2" data-name="Layer 1"><rect class="cls-1" x="0.5" y="0.5" width="364" height="364" rx="21.61" ry="21.61"/><path d="M342.89,1A21.13,21.13,0,0,1,364,22.11V342.89A21.13,21.13,0,0,1,342.89,364H22.11A21.13,21.13,0,0,1,1,342.89V22.11A21.13,21.13,0,0,1,22.11,1H342.89m0-1H22.11A22.17,22.17,0,0,0,0,22.11V342.89A22.17,22.17,0,0,0,22.11,365H342.89A22.17,22.17,0,0,0,365,342.89V22.11A22.17,22.17,0,0,0,342.89,0Z"/><path class="cls-2" d="M183,346.48C92.9,346.48,19.57,273.16,19.57,183S92.9,19.57,183,19.57,346.48,92.9,346.48,183,273.16,346.48,183,346.48Z"/><path d="M183,27.57A155.46,155.46,0,0,1,292.95,292.95,155.46,155.46,0,1,1,73.1,73.1,154.44,154.44,0,0,1,183,27.57m0-16A171.46,171.46,0,1,0,354.48,183,171.46,171.46,0,0,0,183,11.57Z"/><path class="cls-3" d="M183,327.55C103.34,327.55,38.5,262.72,38.5,183S103.34,38.5,183,38.5,327.55,103.34,327.55,183,262.72,327.55,183,327.55Z"/><path d="M183,46.5a136.52,136.52,0,1,1-96.54,40A135.63,135.63,0,0,1,183,46.5m0-16A152.52,152.52,0,1,0,335.55,183,152.52,152.52,0,0,0,183,30.5Z"/><path class="cls-1" d="M182.5,209.88a27.37,27.37,0,1,1,27.38-27.37A27.41,27.41,0,0,1,182.5,209.88Z"/><path d="M182.5,155.63a26.87,26.87,0,1,1-26.87,26.87,26.91,26.91,0,0,1,26.87-26.87m0-1a27.87,27.87,0,1,0,27.87,27.87,27.87,27.87,0,0,0-27.87-27.87Z"/><path d="M164.2,179.2a15.31,15.31,0,0,1,17.72-13.62c1.89.28,2.7-2.61.8-2.89-10.92-1.63-20.31,5.53-21.51,16.51-.21,1.92,2.79,1.9,3,0Z"/><g class="cls-4"><path class="cls-5" d="M166,178.34c.31-8.14,6.79-14.06,14.82-14.31,1.93-.06,1.93-3.06,0-3-9.71.31-17.44,7.49-17.82,17.31-.07,1.93,2.93,1.93,3,0Z"/></g></g></g></svg>