<svg xmlns="http://www.w3.org/2000/svg" viewBox="0 0 223.54 147.62"><title>Asset 1</title><g id="Layer_2" data-name="Layer 2"><g id="Layer_1-2" data-name="Layer 1"><path d="M90.17,121.1c-7.87,1.5-21.93,2.25-42.37,2.25-24.37-.38-39.18-1.69-44.62-3.56A310.79,310.79,0,0,1,0,76.3C0,54.36.38,36.93,1.5,24c.75-.37,2.81-.56,5.81-.56,3.75,0,6,.37,6.94,1.12L13.87,54c37.68.75,58.49,1.5,62.24,2.44a14.36,14.36,0,0,1,.75,5.44,18.63,18.63,0,0,1-1.13,6c-4.5.38-7.87.56-9.93.56-17.43,0-34.87-.19-52.3-.75,0,10.5.56,23.81,1.69,40.3a268.77,268.77,0,0,0,31.49,1.5L90,110a14.84,14.84,0,0,1,.75,5.62A21,21,0,0,1,90.17,121.1Zm11.44-108c-12.19.75-36.37.94-72.36.94-13.5,0-22.68-.19-27.56-.75A56.13,56.13,0,0,1,.94,7.69,21.55,21.55,0,0,1,1.69,1.5C20.25.56,37.49,0,53.62,0c17.25,0,33.18.75,48,1.87.19,1.87.37,3.75.37,5.62A35.68,35.68,0,0,1,101.61,13.12Z"/><path d="M209.11,105.63c-8.62,28.12-16.12,42-22.5,42-4.5,0-14.43-15.18-29.43-45.55-22.12,30.37-34.87,45.37-37.87,45.37-2.25,0-5.81-5.25-11.06-15.75-7.12-15.75-13.5-34.12-19.12-55.3-5.25-19.5-8.81-37.3-10.5-53.43a15.39,15.39,0,0,1,6.19-1.69c1.12,0,3,.19,5.43.19,5.63,25.87,9.94,42.93,12.56,51.18,6.75,23.62,13.12,41.62,19.12,53.8,1.69-1.87,9.37-12.18,23.24-30.93,6-8.06,10.5-12.18,13.87-12.18,1.87,0,4.5,3.19,8.06,9.56,8.44,16.5,14.62,27.74,18.56,33.93,1.31-.75,5.44-12.37,12.37-35.24,5.81-22.68,10.31-43.68,13.31-62.8.94,0,3-.19,6.37-.19a9.16,9.16,0,0,1,5.81,2.06C222,51.26,217.17,76.2,209.11,105.63Z"/></g></g></svg>