<svg xmlns="http://www.w3.org/2000/svg" viewBox="0 0 302.88 282.38"><defs><style>.cls-1{fill:#222;}.cls-2{fill:none;stroke:#f7061d;stroke-miterlimit:10;stroke-width:3px;}.cls-3{fill:#fff;}.cls-4{fill:#f7061d;}</style></defs><title>Asset 9</title><g id="Layer_2" data-name="Layer 2"><g id="Layer_1-2" data-name="Layer 1"><path class="cls-1" d="M0,210.93V132.45s0-49.36,42.63-74a28.45,28.45,0,0,1,16.83-28S89.64,0,151.95,0c0,0,72.41,7.93,97.08,33.73,0,0,11.22,7.85,13.46,21.31,0,0,40.38,38.14,40.38,72.91v83s-4.37,9.93-11.47,0l-1.22-79.18s-.42-32.2-33.92-65c0,0-8.61,1.82-28-8.51,0,0-29.65-23.09-76.79-21.87,0,0-62.94-1.22-78.12,22.48,0,0-2.11,6-21.26,6.08,0,0-36.45,34-37.06,57.71l-2.43,88.3S7.49,222.08,0,210.93Z"/><path class="cls-2" d="M77.4,210.93s11,3.24,12.58-14.29l4.58-43.83s4.58-36.32,6.87,0V254.25s3.82,52.6,8.4,0V136.67s6.35-33.67,12.72,0l7.14,113.82s4.58,32.56,10.69,0l14.51-95.17s9.93-45.08,6.87,0L158,210.93s-5.38,35.8,11.44,22l10-68.87s7.51-42.58,13.77-1.25V233s3.76,40.07,12.52,0V174.1s2.53-50.09,12.52,0c0,0-2.56,32.56,10,47.59"/><path class="cls-3" d="M250.66,150.08c-20.19,0-22.44,17.95-22.44,17.95v89.74c1.12,30.29,22.44,24.1,22.44,24.1,22.44,0,20.19-26.34,20.19-26.34L268.61,168C269.73,149,250.66,150.08,250.66,150.08Z"/><path class="cls-4" d="M284.31,240.94V192.7c0-23.56-15.7-24.68-15.7-24.68l2.24,87.5C284.31,254.4,284.31,240.94,284.31,240.94Z"/><path class="cls-3" d="M55,145.63c20.19,0,22.44,17.95,22.44,17.95v89.74C76.28,283.6,55,277.41,55,277.41c-22.44,0-20.19-26.34-20.19-26.34L37,163.57C35.9,144.5,55,145.63,55,145.63Z"/><path class="cls-4" d="M21.31,236.49V188.25c0-23.56,15.7-24.68,15.7-24.68l-2.24,87.5C21.31,249.95,21.31,236.49,21.31,236.49Z"/></g></g></svg>