<svg xmlns="http://www.w3.org/2000/svg" viewBox="0 0 130.34 228.82"><defs><style>.cls-1,.cls-2{fill:none;stroke:#000;stroke-miterlimit:10;}.cls-2{stroke-width:0.5px;}</style></defs><title>Asset 4</title><g id="Layer_2" data-name="Layer 2"><g id="Layer_1-2" data-name="Layer 1"><path class="cls-1" d="M47.83,118.8,46.3,77.75a2,2,0,0,1-1.68-1.38V63.5A6.26,6.26,0,0,1,46.15,62L44.92,36.54s-.61-9.8-.31-18.69l.31-8.58a7.28,7.28,0,0,1,4-5.51S48.6,2.23,53.19.7A3,3,0,0,1,55.95,1s2.14-.92,9.5,1.53l13.17,4.9,9.19,4s1.84,1.23,2.14,2.45l.61,4.6.61,13.79V43.59l-.61,18.07s1.84,2.14,1.23,2.45V76.37s.31.92-1.53,1.23L89,114.66l5.51,9.19,29.72-24.51s.61-2.76,2.14-2.76v1.53s1.53-.31,1.84.31.92-1.53.92-1.53,1.84,4.9-1.53,5.82l-8.58,44.11s5.51,4.29,0,7.66l8.58,43.5s3.68,2.76,1.53,6.13l-.61-.92a1.73,1.73,0,0,1-1.84,0l-.31,1.53s-2.14-1.84-1.84-3.37l-23.9-19.91s-3.06.92-3.68.61L76.17,224.34a3.31,3.31,0,0,1-2.45,1.23s-.92,2.76-2.45,2.76-2.76-2.45-2.76-2.45a4.07,4.07,0,0,1-3.68-2.45L42.16,182.67s-3.06,0-4.29-1.23L11.53,202.59a3.61,3.61,0,0,1-1.84,3.06v-1.53s-1.53,1.53-2.45-.31l-.31,1.84A5.45,5.45,0,0,1,6,202.28a4.09,4.09,0,0,1,2.14-2.76L17,155.1a4.56,4.56,0,0,1-2.14-5.82s-12.56.61-14.4-.61V145s.92-.61,1.53-.31c0,0,.31-7.66,5.51-9.8,0,0,2.45-1.23,7,0L8.16,102.72s-3.06-1.53-1.53-6.13l.92,2.14a1.34,1.34,0,0,1,1.84-.61V96s2.76,2.14,2.14,4.29l29.72,24.51a4.66,4.66,0,0,1,2.76-.31Z"/><path class="cls-1" d="M124.57,104.55l-8.58,42s-.92.61-.92.92c0,0-11.95-2.45-11.95-1.84,0,0-1.23-4.29-5.82-9.5v-4.9h1.23v4.9s1.23,4.29,3.37.61v-6.43a3.05,3.05,0,0,0-.31-1.23Z"/><path class="cls-1" d="M96.23,125.84,116.76,109,99.91,126.76a6.47,6.47,0,0,0-3.68,0Z"/><path class="cls-1" d="M92.71,134a1.08,1.08,0,0,0,1.23-.31v1.84Z"/><path class="cls-1" d="M95.47,136.11a2.37,2.37,0,0,1-.31.92s6.13,7.35,5.82,8.27c0,0-.31-1.84-3.06-5.82L96.08,137a1.34,1.34,0,0,1-.31-.92Z"/><path class="cls-1" d="M88.42,119.87l3.06,4.6s-1.53-.31-1.84.31l-1.23-1.23Z"/><path class="cls-1" d="M88.12,134.88s1.84-1.53,1.53-2.45c0,0,2.45,3.68,3.37,4.29a17,17,0,0,1-5.21,5.21Z"/><path class="cls-1" d="M88.12,126.61v5.82a2.14,2.14,0,0,0,.61-1.23v-4.29S88.42,126.3,88.12,126.61Z"/><path class="cls-2" d="M92.71,128.45v3.68s.31.92.31,0v-3.68Z"/><path class="cls-1" d="M87.81,144.38s6.13-4.6,6.43-6.13a37.44,37.44,0,0,1,4.9,6.74S88.12,143.77,87.81,144.38Z"/><path class="cls-1" d="M103.43,158.78s11.34-1.53,12.87-2.76l8.88,41.36-22.67-21.44.92-3.37Z"/><path class="cls-1" d="M84.44,176.85l1.84-3.68a20,20,0,0,0,3.06-2.76,6.24,6.24,0,0,0,3.37.61,3.45,3.45,0,0,1,1.23,1.53c.31.92,0,5.51,0,5.51a3.09,3.09,0,0,0,.61,1.53H86.28v-1.84S85.36,176.24,84.44,176.85Z"/><path class="cls-1" d="M98.53,172.26l-.92-.92s0-.92,3.37-6.74v6.13S99.45,170.11,98.53,172.26Z"/><path class="cls-1" d="M93.94,161.23l2.14-1.84,4.9-.31a21.65,21.65,0,0,1-2.45,6.43l-2.14,4.29s-1.53-1.53-1.84-1.53v-5.51A3.09,3.09,0,0,0,93.94,161.23Z"/><path class="cls-1" d="M87.5,160s5.82,0,5.82-.31l-3.06,2.76a10.64,10.64,0,0,0-.31,4l-.31-3.68S90,162.45,87.5,160Z"/><path class="cls-1" d="M86.89,161.53a5.1,5.1,0,0,1,1.53,1.84v2.14a6.7,6.7,0,0,0-1.53-.92Z"/><polygon class="cls-1" points="86.89 166.74 88.42 167.66 86.89 169.5 86.89 166.74"/><path class="cls-1" d="M86.28,182.37h7L74,221.89A4,4,0,0,0,72.19,220V192.17s9.8-.61,8.88-4c0,0,5.21-1.53,4.9-2.76v-3.06Z"/><path class="cls-1" d="M97.31,174.1l1.53,1.53v1.53s-1.23,0-1.53.31Z"/><path class="cls-1" d="M103.43,149s10.42,1.53,10.11,2.14a4.83,4.83,0,0,0,.31,1.23s-10.42,2.14-10.42,1.53v-.61S105,150.51,103.43,149Z"/><polygon class="cls-1" points="101.9 177.77 112.93 187.88 101.9 178.69 101.9 177.77"/><path class="cls-1" d="M44.92,183h5.51v1.84s.31,2.14,4.6,3.06c0,0-.31,4.6,14.09,4.29L69.74,220a4.41,4.41,0,0,0-1.84,2.14Z"/><path class="cls-1" d="M50.44,179.92H44a12.64,12.64,0,0,0,.31-2.76v-3.68s0-.92,1.53-2.14l5.51,5.21a2.3,2.3,0,0,0-.92,2.14Z"/><path class="cls-1" d="M48,169.81l1.84-1.53v.61s-.61.92-.31,1.53l.31,1.23Z"/><path class="cls-1" d="M49.52,160.31s-2.76,2.45-2.76,3.06v4.9l2.76-1.84s-.31-1.23.31-1.53V160Z"/><path class="cls-1" d="M41.24,159.39a60.29,60.29,0,0,0,6.74.31l-2.45,2.76a3.72,3.72,0,0,0-.31,1.53,5.88,5.88,0,0,0-1.53-2.45Z"/><path class="cls-1" d="M43.08,163.07v4a1,1,0,0,1,.61.31V164S43.7,163.68,43.08,163.07Z"/><path class="cls-1" d="M42.47,171.34h.92l-.31,1.53S42.78,171.34,42.47,171.34Z"/><path class="cls-1" d="M36,159.08a8.85,8.85,0,0,0,3.06,0,4.21,4.21,0,0,0,2.14,2.14,2.87,2.87,0,0,0-.92,2.45v3.68S36.34,160.92,36,159.08Z"/><path class="cls-1" d="M40.63,171.64l-.61.61v5.21s.92,0,1.23.31v-4.9S41.24,171.64,40.63,171.64Z"/><path class="cls-1" d="M35.42,162.15s2.76,6.13,4.29,7.35L38.18,171s-1.23.31-1.23,1.23l-1.23,1.23s-.31-.31-.31-4.9Z"/><path class="cls-1" d="M19.8,156s8,3.06,13.17,2.14v11.95a23.7,23.7,0,0,0,.61,5.51l-23,23.28Z"/><path class="cls-1" d="M34.81,177.77A14,14,0,0,0,36,179.61L20.11,192.78Z"/><path class="cls-1" d="M10.61,103.94l26,25.43v8a6.66,6.66,0,0,0-4.9-1.84s-2.45,0-1.23,3.68H29.6S27.77,137,26.85,137H20.41s-1.53.61-1.84,1.23Z"/><path class="cls-1" d="M48.9,144.07s-5.51.31-5.82.31v-4.6a4,4,0,0,0,.31-2.45l5.51,5.51Z"/><path class="cls-1" d="M40.33,131.21s0,2.76.92,2.76v2.14H40S40,131.21,40.33,131.21Z"/><path class="cls-1" d="M48.29,124.16l.31,10.11a13.83,13.83,0,0,1-2.14-2.14c-.31-.61,0-5.51,0-5.51Z"/><path class="cls-1" d="M44.92,131.21a3.64,3.64,0,0,1-.61,2.76S44,137,48.9,140.4v-4.29A6.61,6.61,0,0,1,44.92,131.21Z"/><path class="cls-1" d="M43.08,148.06l6.13-.31s0,7,.31,7.35c0,0-12.87,0-12.87-.61L35.73,153s.31-.31.31-1.53l3.68,2.14s3.37.61,4-1.53C43.7,152,44,151.12,43.08,148.06Z"/><path class="cls-1" d="M50.13,60.44,48.9,5.91V3.76"/><path class="cls-1" d="M54.42,1.62a1.88,1.88,0,0,0-2.14,2.14l1.84,56.06s29.1-1.53,36.46,1.84"/><path class="cls-1" d="M46.45,77.9s-1.23-.61,0-1.84,17.46-2.14,17.46-2.14c20.83-.61,26,2.45,26,2.45l.31,1.23"/><path class="cls-1" d="M44.92,75.14S51,72.39,68.51,72.39c0,0,18.69,0,23,2.45"/><path class="cls-1" d="M44.92,73.92s5.51-3.06,23.28-3.06c0,0,20.53,0,23.28,2.76"/><path class="cls-1" d="M85.67,178.38c-1.23,2.76-13.48,3.37-13.48,3.37V174.1s13.79.31,15-3.06"/><path class="cls-1" d="M50.78,177.77C50.21,179,52,179.61,52,179.61c4,1.84,16.24,2.14,16.24,2.14V174.1s-12.25.31-17.77-2.14"/><path class="cls-1" d="M63,160.62,52,167s10.11,2.14,16.24,1.53v-5.82a15.54,15.54,0,0,1-1.84-2.14C66.06,160,63,160.62,63,160.62Z"/><path class="cls-1" d="M72.19,163.07a8.05,8.05,0,0,0,2.45-2.45h1.84l9.5,5.51a41.15,41.15,0,0,1-13.79,2.45Z"/><path class="cls-1" d="M66.37,156a1.34,1.34,0,0,1,.92-1.23s-11-6.43-17.46-11.64c0,0,0,12.25.31,12.25C50.13,155.41,55,155.71,66.37,156Z"/><path class="cls-1" d="M87.5,147.75s13.17.92,13.48,1.23c0,0-.92,2.14-.31,3.06l-1.84,2.45-11.34.61Z"/><path class="cls-1" d="M73.41,153.88l1.53,1.53,11.95-.31v-9.8S78,151.73,73.41,153.88Z"/><path class="cls-1" d="M49.82,140.4s6.13,7,19,12.87l.61-53.61s-2.14-2.14-1.23-2.45l-19,25.43Z"/><path class="cls-1" d="M48.9,117.42,65.45,95.67S67,93.83,68.2,94.14A5.44,5.44,0,0,1,71,92s1.53,0,2.14,2.14c0,0,.61,2.14,3.06,1.23l11.95,17.77"/><path class="cls-1" d="M86.89,143.15c-4,3.68-15,9.8-15,9.8l.31-53.31A2.73,2.73,0,0,0,74,97.2L87.2,117.73Z"/><path class="cls-1" d="M32.67,149.28s-7.66.92-9.8,1.84V152s6.43,2.14,10.11,1.84A5.49,5.49,0,0,1,32.67,149.28Z"/><path class="cls-1" d="M50.44,160v4.9a1.07,1.07,0,0,1,.31.61l9.19-5.21Z"/><polygon class="cls-1" points="78.93 160.31 86.58 164.6 86.58 160 78.93 160.31"/><path class="cls-1" d="M38.18,126.92a2.14,2.14,0,0,1,1.23-.61L29.3,118Z"/><polygon class="cls-1" points="84.44 63.5 84.44 69.02 88.12 69.63 88.12 64.11 84.44 63.5"/></g></g></svg>