<svg xmlns="http://www.w3.org/2000/svg" viewBox="0 0 497 874.61"><defs><style>.cls-1{fill:none;stroke:#000;stroke-miterlimit:10;}</style></defs><title>Asset 1</title><g id="Layer_2" data-name="Layer 2"><g id="Layer_1-2" data-name="Layer 1"><path class="cls-1" d="M343.5,509.11v-33s-1-8,5-8v-101s-1-4,1-7v-8s-4-2-3-10v-9s0-4,2-5v-9a9.39,9.39,0,0,1-3-9v-8s-1-2,2-5v-11a12,12,0,0,1-3-8v-9s0-5,3-6v-10s-4-4-3-8v-10a6.46,6.46,0,0,1,3-5v-10a6.29,6.29,0,0,1-3-7v-10s-1-2,2-5v-12s-4-2-3-8v-10a4.37,4.37,0,0,1,3-4v-11s-4-2-3-9v-9s0-4,2-4v-14s-4-1-3-6v-10s0-2,2-5v-14s-3-2-3-5v-12a4.37,4.37,0,0,1,3-4v-14s-4-2-3-5v-26s-3-5,16-11c0,0,86-11,176,1,0,0,13,2,9,15v22a6.83,6.83,0,0,1-4,4v14s5,1,4,9v8s0,1-3,3v15s3,0,2,8v7s1,3-3,5v14s4,1,3,9v7s0,2-3,5v12s3,5,2,13c0,0,1,8-3,9v12s2,3,2,10v6s1,5-3,6v11s4-1,3,12c0,0,1,9-3,10v10s4,5,3,14c0,0,1,9-3,10v10s3-1,3,8v9s0,5-3,6v9s2-1,2,7v10s0,5-2,7v8s3,4,2,7l-1,105,8-4a17.11,17.11,0,0,1,12,1l9,3s8,4,7,9l2,34,47,19s1,0,4,2c0,0,2,1,9,2,0,0,24,8,22,15v2s21,17,24,29c0,0,3,1,4,50a135.65,135.65,0,0,1-11,25s-16,17-23,20c0,0-15,13-55,30l-46,42v44l-28,9s-14-8-23-16a25.59,25.59,0,0,1-15,9l-1,77h-80l-1-76s-20-8-22-20l-1-25-17-3-1,16s2,12-10,13l-23,5s-9,3-15-6l-8-6s-3,4,0-28l1-16s-20-2-73-27c0,0-39-22-41-46a401.92,401.92,0,0,1-3-45s1-15,19-30c0,0-11-5,3-15,0,0,14-13,22-10Z" transform="translate(-189)"/><path class="cls-1" d="M350.5,49.11v15s-8,11,90,11c0,0,89,0,91-8l-2-18s-49,9-89,6C440.5,55.11,390.5,56.11,350.5,49.11Z" transform="translate(-189)"/><path class="cls-1" d="M350.5,99.11s66,26,181,0v-15s-63,17-181,0Z" transform="translate(-189)"/><path class="cls-1" d="M352.5,120.11s56,18,179,0v15s-69,31-179,0Z" transform="translate(-189)"/><path class="cls-1" d="M352.5,155.11s88,21,179-2v16s-74,31-179,0Z" transform="translate(-189)"/><path class="cls-1" d="M352.5,190.11s79,19,179,0v13s-85,33-179,0Z" transform="translate(-189)"/><path class="cls-1" d="M352.5,223.11s79,26,179,0v14s-73,35-179,0Z" transform="translate(-189)"/><path class="cls-1" d="M355.5,257.11s86,24,176,0v11s-60,37-176,3Z" transform="translate(-189)"/><path class="cls-1" d="M355.5,290.11s73,29,176,0v13s-85,43-176,0Z" transform="translate(-189)"/><path class="cls-1" d="M355.5,322.11s91,34,174,0v15s-70,39-174,0Z" transform="translate(-189)"/><path class="cls-1" d="M355.5,357.11s76,29,174,0v13s-81,41-174-2Z" transform="translate(-189)"/><path class="cls-1" d="M348.5,400.81s88.36,47.7,189.68,0" transform="translate(-189)"/><polygon class="cls-1" points="352.5 488.11 361.5 485.11 362.5 504.11 352.5 501.11 352.5 488.11"/><path class="cls-1" d="M560.5,557.11a69.76,69.76,0,0,1,28,7l-28,13Z" transform="translate(-189)"/><path class="cls-1" d="M553.5,602.11s6-3,6-9l50-21s18,7,32,19c0,0-11,11,2,20l-11,28-68,19-12-7Z" transform="translate(-189)"/><path class="cls-1" d="M553.5,602.11l-22,6c-2,1-5,0-5,0l-67,42s-8,17-29,3l-65-40v77l60,2,4-38" transform="translate(-189)"/><path class="cls-1" d="M460.5,652.11l6,38s17,1,32-4l2.07-60.48" transform="translate(-189)"/><path class="cls-1" d="M269.5,669.11l67-5v23S288.5,678.11,269.5,669.11Z" transform="translate(-189)"/><path class="cls-1" d="M233.5,630.11l18,28,85-7v-56h-5s-3,1-9-5l-14-8h-40s-41,25-38,30C230.5,612.11,238.5,611.11,233.5,630.11Z" transform="translate(-189)"/><path class="cls-1" d="M365.5,593.11l65,42s14-9,25,0l45-28v-37s-79,18-135-8Z" transform="translate(-189)"/><path class="cls-1" d="M534.5,737.11s7-2,11,0l19-18-17,4A40.83,40.83,0,0,1,534.5,737.11Z" transform="translate(-189)"/><path class="cls-1" d="M374.5,737.11l54,2,5,9A432.11,432.11,0,0,1,374.5,737.11Z" transform="translate(-189)"/><path class="cls-1" d="M463.5,736.11s27-1,34-3v14h-36Z" transform="translate(-189)"/><path class="cls-1" d="M379.5,753.11s46,11,51,12l3,3s15-6,26-1l2-3h37v19s-1,3,1,5" transform="translate(-189)"/><polygon class="cls-1" points="117.5 540.11 117.5 565.11 53.5 567.11 117.5 540.11"/><path class="cls-1" d="M326.5,740.11l15,10v9s2,3-16,6Z" transform="translate(-189)"/><path class="cls-1" d="M365.5,593.11l-37-21v-29s33-10,33-6" transform="translate(-189)"/><path class="cls-1" d="M306.5,540.11c0-9,5-10,5-10l30-7c27,7,24,14,24,14v16s52,32,137,7v-14s0-8,28-10c0,0,14,1,30,10" transform="translate(-189)"/><path class="cls-1" d="M507.36,620.11s14.14,8,19.14-12v72s2,1,25-4c0,0,57-14,81-37,0,0,60-43,5-82l-4,5,19,27" transform="translate(-189)"/><path class="cls-1" d="M336.5,595.11l10,7s-1,13,10,6l9,5" transform="translate(-189)"/><path class="cls-1" d="M530.5,553.11v8s4-1,3-6Z" transform="translate(-189)"/><polygon class="cls-1" points="152.5 541.11 155.5 546.11 155.5 540.11 152.5 541.11"/><line class="cls-1" x1="437.5" y1="565.11" x2="459.5" y2="599.11"/><path class="cls-1" d="M189.5,610.11s2,103,261,90c0,0,225.27-11,233.14-105" transform="translate(-189)"/><path class="cls-1" d="M357.5,7.11s-37,9,80,10c0,0,103,3,96-11" transform="translate(-189)"/><path class="cls-1" d="M342,13.31s.46,9.8,105.46,9.8c0,0,93.73-1.6,93.86-9.8" transform="translate(-189)"/><circle class="cls-1" cx="255.5" cy="864.11" r="8"/><path class="cls-1" d="M433.5,805.11v26s11,14,19,0v-26" transform="translate(-189)"/><line class="cls-1" x1="246.5" y1="826.11" x2="261.5" y2="826.11"/><line class="cls-1" x1="246.5" y1="821.11" x2="261.5" y2="821.11"/><line class="cls-1" x1="246.5" y1="817.11" x2="261.5" y2="817.11"/><line class="cls-1" x1="246.5" y1="812.11" x2="261.5" y2="812.11"/><path class="cls-1" d="M427.5,518.11h39s8,1,7-7-1-38-1-38,1-6-8-5h-39s-6,0-5,9v32S418.5,518.11,427.5,518.11Z" transform="translate(-189)"/><circle class="cls-1" cx="259" cy="720.61" r="5.5"/><line class="cls-1" x1="275.5" y1="468.11" x2="236.5" y2="468.11"/><path class="cls-1" d="M215.29,620.11l13.21-35a6.46,6.46,0,0,1-5-3s-39,51,28,76" transform="translate(-189)"/><polyline class="cls-1" points="72.5 582.11 48.5 582.11 38.5 610.11"/><polygon class="cls-1" points="363.5 670.11 376.5 671.11 363.5 675.11 363.5 670.11"/></g></g></svg>